<svg xmlns="http://www.w3.org/2000/svg" viewBox="0 0 180 48" role="img" aria-labelledby="title desc">
  <title id="title">STEP_3D Lab</title>
  <desc id="desc">Логотип STEP_3D Lab с градиентным символом и надписью</desc>
  <defs>
    <linearGradient id="grad" x1="0%" y1="0%" x2="100%" y2="100%">
      <stop offset="0%" stop-color="#4b7bff" />
      <stop offset="100%" stop-color="#7f9bff" />
    </linearGradient>
  </defs>
  <rect width="180" height="48" rx="12" fill="#ffffff" />
  <g transform="translate(12 10)">
    <rect x="0" y="0" width="28" height="28" rx="8" fill="url(#grad)" />
    <path
      d="M19.6 7.8c-.4-1.9-1.9-3.3-4.6-3.3-2.7 0-4.8 1.5-4.8 4.3 0 2.1 1.4 3.3 3.6 3.9l1.5.4c1.3.4 2 .8 2 1.7 0 1.1-.9 1.9-2.3 1.9-1.4 0-2.3-.8-2.6-2.2l-3.6.6c.4 3 2.6 4.7 6.1 4.7 3.7 0 6.2-2.1 6.2-5.1 0-2.5-1.6-3.7-3.8-4.3l-1.7-.5c-1.3-.4-1.7-.8-1.7-1.5 0-.9.8-1.6 2.1-1.6 1.1 0 1.9.6 2.1 1.5l3.4-.5Z"
      fill="#ffffff"
    />
  </g>
  <g transform="translate(52 12)" fill="#0f172a">
    <path d="M0 0h12.4c4.5 0 7.5 2.2 7.5 6 0 4-3.3 6.1-7.7 6.1H3.9v6.8H0V0Zm3.9 9.2h7.8c2.6 0 4-.9 4-3.1 0-2.1-1.4-3-4-3H3.9v6.1Z" />
    <path d="M23.6 0h3.9v15.4c0 2.7 1.6 4.3 4.2 4.3 2.5 0 4.1-1.6 4.1-4.3V0h3.9v15.4c0 4.8-3.3 7.7-8 7.7-4.8 0-8.1-2.9-8.1-7.7V0Z" />
    <path d="M55.2 0h3.6l8.2 22.1H63l-1.7-4.7h-8.1l-1.7 4.7h-3.9L55.2 0Zm4.8 13.7-2.8-7.8-2.9 7.8h5.7Z" />
    <path d="M71.5 0h8.6c4.6 0 7.3 2.3 7.3 5.9 0 3-1.8 4.9-4.4 5.5l5 10.7h-4.3l-4.5-10h-3.7v10h-3.9V0Zm3.9 9.2h4.3c2.7 0 4.1-.9 4.1-3.2 0-2.1-1.4-3.1-4.1-3.1h-4.3v6.3Z" />
    <path d="M96.8 0h7.5c6 0 10 3.5 10 10.2 0 6.7-4 10.1-9.9 10.1h-7.6V0Zm3.9 17.3h3.4c3.8 0 6.2-2.3 6.2-7.1s-2.4-7.2-6.3-7.2h-3.3v14.3Z" />
  </g>
  <g transform="translate(52 34)" fill="#4b7bff">
    <path d="M0 0h3.6l4.5 6.7V0h3.5v12.1H8L3.5 5.2v6.9H0V0Z" />
    <path d="M16.3 0h3.7l4.6 12.1h-3.6l-.9-2.6h-4l-.9 2.6h-3.5L16.3 0Zm2.1 6.8-1.3-3.7-1.3 3.7h2.6Z" />
    <path d="M24.9 0h3.5v8.9c0 1.2.9 2 2.1 2 1.3 0 2.1-.8 2.1-2V0h3.4v8.9c0 3.1-2.3 5.1-5.5 5.1-3.2 0-5.6-1.9-5.6-5.1V0Z" />
    <path d="M39.6 0h11.8v2.8h-4.2v9.3h-3.5V2.8h-4.1V0Z" />
  </g>
</svg>
