<svg xmlns="http://www.w3.org/2000/svg" width="480" height="540" viewBox="0 0 480 540" preserveAspectRatio="xMidYMid slice">
  <defs>
    <linearGradient id="bg" x1="0" y1="1" x2="1" y2="0">
      <stop offset="0%" stop-color="#F5F3FF" />
      <stop offset="100%" stop-color="#E0E7FF" />
    </linearGradient>
  </defs>
  <rect width="480" height="540" rx="36" fill="url(#bg)" />
  <circle cx="360" cy="160" r="64" fill="#6366F1" opacity="0.16" />
  <rect x="60" y="80" width="160" height="160" rx="40" fill="#312E81" opacity="0.08" />
  <g transform="translate(100 120)">
    <path d="M128 104c44 0 80-36 80-80S172 0 128 0 48 36 48 80s36 80 80 80z" fill="#312E81" opacity="0.85" />
    <path d="M128 138c-54 0-98 44-98 98v26c0 6.6 5.4 12 12 12h172c6.6 0 12-5.4 12-12v-26c0-54-44-98-98-98z" fill="#4338CA" opacity="0.95" />
    <path d="M128 148c46 0 86 36 86 94v18c0 4.4-3.6 8-8 8H50c-4.4 0-8-3.6-8-8v-18c0-58 40-94 86-94z" fill="#312E81" />
    <path d="M98 126h60c15 0 28-13 28-28V82c0-15-13-28-28-28H98c-15 0-28 13-28 28v16c0 15 13 28 28 28z" fill="#EEF2FF" opacity="0.96" />
    <rect x="94" y="70" width="28" height="10" rx="5" fill="#818CF8" />
    <rect x="134" y="70" width="28" height="10" rx="5" fill="#C7D2FE" />
    <rect x="104" y="90" width="56" height="12" rx="6" fill="#4C1D95" opacity="0.2" />
  </g>
  <text x="40" y="468" font-size="28" font-family="'Inter', sans-serif" fill="#1E1B4B" opacity="0.75">Владимир Ганьшин · преподаватель</text>
</svg>
