<svg xmlns="http://www.w3.org/2000/svg" width="480" height="540" viewBox="0 0 480 540" preserveAspectRatio="xMidYMid slice">
  <defs>
    <linearGradient id="bg" x1="0" y1="0" x2="1" y2="1">
      <stop offset="0%" stop-color="#FFF7ED" />
      <stop offset="100%" stop-color="#FEE2E2" />
    </linearGradient>
  </defs>
  <rect width="480" height="540" rx="36" fill="url(#bg)" />
  <circle cx="130" cy="170" r="60" fill="#FB923C" opacity="0.18" />
  <circle cx="360" cy="320" r="72" fill="#F472B6" opacity="0.15" />
  <g transform="translate(90 120)">
    <path d="M118 102c42 0 76-34 76-76S160 0 118 0 42 34 42 76s34 76 76 76z" fill="#9D174D" opacity="0.8" />
    <path d="M118 134c-50 0-92 40-92 92v34c0 6.6 5.4 12 12 12h160c6.6 0 12-5.4 12-12v-34c0-52-42-92-92-92z" fill="#BE123C" opacity="0.9" />
    <path d="M118 144c46 0 82 34 82 90v24c0 4.4-3.6 8-8 8H44c-4.4 0-8-3.6-8-8v-24c0-56 36-90 82-90z" fill="#BE123C" opacity="0.95" />
    <path d="M90 122h56c16 0 30-14 30-30v-18c0-16-14-30-30-30H90c-16 0-30 14-30 30v18c0 16 14 30 30 30z" fill="#FFF1F2" opacity="0.96" />
    <path d="M90 78h24c10 0 18-8 18-18V48c0-10-8-18-18-18H90c-10 0-18 8-18 18v12c0 10 8 18 18 18z" fill="#FDE68A" opacity="0.7" />
    <rect x="120" y="70" width="24" height="12" rx="6" fill="#FB7185" />
    <rect x="90" y="94" width="60" height="12" rx="6" fill="#FECACA" />
  </g>
  <text x="40" y="468" font-size="28" font-family="'Inter', sans-serif" fill="#9D174D" opacity="0.75">Христина Понкратова · преподаватель</text>
</svg>
