<svg xmlns="http://www.w3.org/2000/svg" width="480" height="540" viewBox="0 0 480 540" preserveAspectRatio="xMidYMid slice">
  <defs>
    <linearGradient id="bg" x1="0" y1="0" x2="1" y2="1">
      <stop offset="0%" stop-color="#F8FAFF" />
      <stop offset="100%" stop-color="#E2E8F0" />
    </linearGradient>
  </defs>
  <rect width="480" height="540" rx="36" fill="url(#bg)" />
  <circle cx="160" cy="150" r="64" fill="#0EA5E9" opacity="0.12" />
  <circle cx="340" cy="110" r="48" fill="#1D4ED8" opacity="0.14" />
  <g transform="translate(120 120)">
    <rect x="38" y="90" width="164" height="214" rx="64" fill="#1E3A8A" opacity="0.08" />
    <path d="M120 108c44 0 80-36 80-80S164 0 120 0 40 36 40 80s36 80 80 80z" fill="#0F172A" opacity="0.85" />
    <path d="M120 136c-54 0-98 44-98 98v36c0 9.9 8.1 18 18 18h160c9.9 0 18-8.1 18-18v-36c0-54-44-98-98-98z" fill="#1F2937" />
    <path d="M120 146c48 0 88 36 88 92v26c0 4.4-3.6 8-8 8H40c-4.4 0-8-3.6-8-8v-26c0-56 40-92 88-92z" fill="#111827" />
    <path d="M86 124h68c14 0 26-12 26-26v-16c0-14-12-26-26-26H86c-14 0-26 12-26 26v16c0 14 12 26 26 26z" fill="#F8FAFC" opacity="0.95" />
    <circle cx="88" cy="68" r="8" fill="#F97316" />
    <circle cx="120" cy="60" r="12" fill="#FBBF24" />
    <circle cx="150" cy="72" r="10" fill="#38BDF8" />
  </g>
  <text x="40" y="468" font-size="28" font-family="'Inter', sans-serif" fill="#0F172A" opacity="0.7">Алексей Рекут · куратор</text>
</svg>
